# xmcd
#
# Track frame offsets:
#	182
#	18307
#	34092
#	50965
#	63945
#	77580
#	89097
#	101625
#	114095
#	132770
#
# Disc length: 1952
#
# Revision: 1
# Processed by: cddbd v1.5.1PL0 Copyright (c) Steve Scherf et al.
# Submitted via: CDex 1.51
# Normalized: r0:TDELIM( - )
#
DISCID=7d079e0a
DTITLE=Assorted - Best of Southern Blues+
DYEAR=1900
DGENRE=Blues
TTITLE0=Lightnin' Hopkins - Found My Baby Crying
TTITLE1=Memphis Slim - Born With The Blues
TTITLE2=T-Bone Walker - No Do Right
TTITLE3=Carter Brothers - Southern Country Boy
TTITLE4=Elmore James - Dust My Broom
TTITLE5=Bobby Rush - Bowlegged Woman, Knock-Kneed Man
TTITLE6=Little Johnny Taylor - Everybody Knows About My Good Thing
TTITLE7=Bobby Powell - C.C. Rider
TTITLE8=Charles Brown - For You
TTITLE9=Lowell Fulson - My Baby
EXTD=
EXTT0=
EXTT1=
EXTT2=
EXTT3=
EXTT4=
EXTT5=
EXTT6=
EXTT7=
EXTT8=
EXTT9=
PLAYORDER=
